<svg xmlns="http://www.w3.org/2000/svg" viewBox="0 0 64 64" width="64" height="64">
  <defs>
    <linearGradient id="g" x1="0" y1="0" x2="1" y2="1">
      <stop offset="0" stop-color="#ff5a5f"/>
      <stop offset="1" stop-color="#ff8a3d"/>
    </linearGradient>
  </defs>
  <rect width="64" height="64" rx="14" fill="#0e1016"/>
  <g fill="#2a3042">
    <rect x="14" y="14" width="6" height="6" rx="1.4"/>
    <rect x="23" y="14" width="6" height="6" rx="1.4"/>
    <rect x="32" y="14" width="6" height="6" rx="1.4"/>
    <rect x="41" y="14" width="6" height="6" rx="1.4"/>
    <rect x="14" y="23" width="6" height="6" rx="1.4"/>
    <rect x="23" y="23" width="6" height="6" rx="1.4"/>
    <rect x="41" y="23" width="6" height="6" rx="1.4"/>
    <rect x="14" y="32" width="6" height="6" rx="1.4"/>
    <rect x="32" y="32" width="6" height="6" rx="1.4"/>
    <rect x="41" y="32" width="6" height="6" rx="1.4"/>
    <rect x="14" y="41" width="6" height="6" rx="1.4"/>
    <rect x="23" y="41" width="6" height="6" rx="1.4"/>
    <rect x="32" y="41" width="6" height="6" rx="1.4"/>
    <rect x="41" y="41" width="6" height="6" rx="1.4"/>
  </g>
  <rect x="23" y="23" width="6" height="6" rx="1.4" fill="url(#g)"/>
  <rect x="32" y="23" width="6" height="6" rx="1.4" fill="#fff"/>
</svg>
